/* XPM */
static char *collect[] = {
/* columns rows colors chars-per-pixel */
"64 64 16 1 ",
"  c #A13064",
". c #DC0078",
"X c #DD0078",
"o c #DC0079",
"O c #DF0079",
"+ c #87445C",
"@ c #86455C",
"# c #1E9A39",
"$ c #1E9B39",
"% c #20983A",
"& c #21983A",
"* c #20993A",
"= c #21993A",
"- c #20983B",
"; c #21983B",
": c #83CE66",
/* pixels */
"::::::::::::::::::::::::::::::::::::::::::::::::::::::::::::::::",
"::::::::::::::::::::::::::::::::::::::::::::::::::::::::::::::::",
"::::::::::::::::::::::::::::::::::::::::::::::::::::::::::::::::",
"::::::::::::::::::::::::::::::::::::::::::::::::::::::::::::::::",
"::::::::::::::::::::::::::::::::::::::::::::::::::::::::::::::::",
"::::::::::::::::::::::::::::::::::::::::::::::::::::::::::::::::",
"::::::::::::::::::::::::::::::::::::::::::::::::::::::::::::::::",
":::::::::-------=%::::::::::%------%::::::::::--==-$--%:::::::::",
":::::::::-%%%%%%%%:::::::::=%%%%%%%%=:::::::::%%%%%%%%%:::::::::",
":::::::::-%-%%%%%%:::::::::%%%%%%%%%%:::::::::-=%%%%%%%:::::::::",
":::::::::---%%%%%%:::::::::%%%%%%%%%=:::::::::%=%%%%%%%:::::::::",
":::::::::---%%%%%%:::::::::%%%%%%%%%=:::::::::$=%%%%%%-:::::::::",
":::::::::-%%%%%%%%:::::::::=%%%%%%%%=:::::::::%%%%%%%%=:::::::::",
":::::::::%%%%%%%%%:::::::::%%%%%%%%%%:::::::::=%%%%%%%%:::::::::",
"::::::::::::::::::-%%%%%%%%%%%%%%%%%%%%%%==%%%::::::::::::::::::",
"::::::::::::::::::=%%%%%%%%%%%%%%%%%%%%%%%=%=%::::::::::::::::::",
"::::::::::::::::::%%%%%%%%%%%%%%%%%%%%%%%%%%--::::::::::::::::::",
"::::::::::::::::::%%%%%%%%%%%%%%%%%%%%%%%%%%--::::::::::::::::::",
"::::::::::::::::::-%%%%%%%%%%%%%%%%%%%%%%%%%--::::::::::::::::::",
"::::::::::::::::::-%%%%%%%%%%%%%%%%%%%%%%%%%%%::::::::::::::::::",
"::::::::::::::::::%%%%%%%%%%%%%%%%%%%%%%%%%%==::::::::::::::::::",
":::::::::::::::::::::::::::%%%%%%%%%%:::::::::::::::::::::::::::",
":::::::::::::::::::::::::::-%%%%%%%%-:::::::::::::::::::::::::::",
":::::::::::::::::::::::::::%%%%%%%%%%:::::::::::::::::::::::::::",
":::::::::::::::::::::::::::%%%%%%%%%%:::::::::::::::::::::::::::",
":::::::::::::::::::::::::::%%%%%%%$%=:::::::::::::::::::::::::::",
":::::::::::::::::::::::::::%%%%-%%%%=:::::::::::::::::::::::::::",
":::::::::::::::::::::::::::%$$=%$$$$=:::::::::::::::::::::::::::",
"::::::::::................. +++@+@@+ .................::::::::::",
":::::::::...................O.OOOOOO...................:::::::::",
":::::::::..............................................:::::::::",
":::::::::..............................................:::::::::",
":::::::::o............................................X:::::::::",
":::::::::o............................................X:::::::::",
":::::::::o.............................................:::::::::",
":::::::::o............................................X:::::::::",
":::::::::o.............................................:::::::::",
":::::::::o.............................................:::::::::",
":::::::::o............................................O:::::::::",
":::::::::o.............................................:::::::::",
":::::::::o............................................o:::::::::",
":::::::::.............................................o:::::::::",
":::::::::........XX...........................O.......o:::::::::",
"::::::::::::::::::Xo..........................::::::::::::::::::",
"::::::::::::::::::............................::::::::::::::::::",
"::::::::::::::::::............................::::::::::::::::::",
"::::::::::::::::::............................::::::::::::::::::",
"::::::::::::::::::............................::::::::::::::::::",
"::::::::::::::::::XXo.......................XX::::::::::::::::::",
"::::::::::::::::::OX.......................ooX::::::::::::::::::",
":::::::::::::::::::::::::::o........o:::::::::::::::::::::::::::",
":::::::::::::::::::::::::::..........:::::::::::::::::::::::::::",
":::::::::::::::::::::::::::o........o:::::::::::::::::::::::::::",
":::::::::::::::::::::::::::X........X:::::::::::::::::::::::::::",
":::::::::::::::::::::::::::X........X:::::::::::::::::::::::::::",
":::::::::::::::::::::::::::X........X:::::::::::::::::::::::::::",
"::::::::::::::::::::::::::::........::::::::::::::::::::::::::::",
"::::::::::::::::::::::::::::::::::::::::::::::::::::::::::::::::",
"::::::::::::::::::::::::::::::::::::::::::::::::::::::::::::::::",
"::::::::::::::::::::::::::::::::::::::::::::::::::::::::::::::::",
"::::::::::::::::::::::::::::::::::::::::::::::::::::::::::::::::",
"::::::::::::::::::::::::::::::::::::::::::::::::::::::::::::::::",
"::::::::::::::::::::::::::::::::::::::::::::::::::::::::::::::::",
"::::::::::::::::::::::::::::::::::::::::::::::::::::::::::::::::"
};
