/* XPM */
static char *player1[] = {
/* columns rows colors chars-per-pixel */
"64 64 48 1 ",
"  c #1E1515",
". c #211615",
"X c #221715",
"o c #231815",
"O c #241815",
"+ c #241915",
"@ c #3F2B17",
"# c #422E17",
"$ c #563B19",
"% c #573C19",
"& c #6D4B1A",
"* c #824C10",
"= c #834C10",
"- c #824D11",
"; c #905310",
": c #A25F12",
"> c #A06E1E",
", c #AA751F",
"< c #BC7114",
"1 c #B07219",
"2 c #B17219",
"3 c #CB720D",
"4 c #CB730E",
"5 c #CC730F",
"6 c #CE740E",
"7 c #CF750E",
"8 c #D17B12",
"9 c #D17C12",
"0 c #C8871E",
"q c #D38115",
"w c #D48115",
"e c #D58215",
"r c #D68316",
"t c #D78617",
"y c #D98B1A",
"u c #DB8E1C",
"i c #D39122",
"p c #D89422",
"a c #DE9923",
"s c #E39A22",
"d c #E39B22",
"f c #E39C22",
"g c #E59D23",
"h c #E49E22",
"j c #E49E23",
"k c #E79F23",
"l c #E49D24",
"z c #83CE66",
/* pixels */
"zzzzzzzzzzzzzzzzzzzzzzzzzzzzzzzzzzzzzzzzzzzzzzzzzzzzzzzzzzzzzzzz",
"zzzzzzzzzzzzzzzzzzzzzzzzzzzzzzzzzzzzzzzzzzzzzzzzzzzzzzzzzzzzzzzz",
"zzzzzzzzzzzzzzzzzzzzzzzzzzzzzzzzzzzzzzzzzzzzzzzzzzzzzzzzzzzzzzzz",
"zzzzzzzzzzzzzzzzzzzzzzzzzzzzzzzzzzzzzzzzzzzzzzzzzzzzzzzzzzzzzzzz",
"zzzzzzzzzzzzzzzzzzzzzzzzzzzzzzzzzzzzzzzzzzzzzzzzzzzzzzzzzzzzzzzz",
"zzzzzzzzzzzzzzzzzzzzzzzzzzzzzzzzzzzzzzzzzzzzzzzzzzzzzzzzzzzzzzzz",
"zzzzzzzzzzzzzzzzzzzzzzzzzzzzzzzzzzzzzzzzzzzzzzzzzzzzzzzzzzzzzzzz",
"zzzzzzzzzzzzzzzzzzzzzzzzzzzzzzzzzz54447744rgggggggjzzzzzzzzzzzzz",
"zzzzzzzzzzzzzzzzzzzzzzzzzzzzzzzzzz45535355rllgfgfggzzzzzzzzzzzzz",
"zzzzzzzzzzzzzzzzzzzzzzzzzzzzzzzzzz55353537rgfgjljfgzzzzzzzzzzzzz",
"zzzzzzzzzzzzzzzzzzzzzzzzzzzzzzzzzz55535573egflgfgfgzzzzzzzzzzzzz",
"zzzzzzzzzzzzzzzzzzzzzzzzzzzzzzzzzz55355533egfgfggjgzzzzzzzzzzzzz",
"zzzzzzzzzzzzzzzzzzzzzzzzzzzzzzzzzz77735533elgfgfffjzzzzzzzzzzzzz",
"zzzzzzzzzzzzzzzzzzzzzzzzzzzzzzzzzz75534577qaaaagjggzzzzzzzzzzzzz",
"zzzzzzzzzzzzzzzzzzzzzzzzzzzzzzzzzz55333335:%%%&phhfjggj2***-zzzz",
"zzzzzzzzzzzzzzzzzzzzzzzzzzzzzzzzzz55375355;.  @ijfggggg<&*--zzzz",
"zzzzzzzzzzzzzzzzzzzzzzzzzzzzzzzzzz75353557;+o.#ijlggfjj1--==zzzz",
"zzzzzzzzzzzzzzzzzzzzzzzzzzzzzzzzzz53735355;+oo#ijlggggj1*-==zzzz",
"zzzzzzzzzzzzzzzzzzzzzzzzzzzzzzzzzz55533557;+o.#ijjfjggj1&===zzzz",
"zzzzzzzzzzzzzzzzzzzzzzzzzzzzzzzzzz75355357;ooo#ijfglljj1*===zzzz",
"zzzzzzzzzzzzzzzzzzzzzzzzzzzzzzzzzz75555557;+++#ijlfjlgj1*===zzzz",
"zzzzzgggzzzzzzzzzzzzzzzzzzzzzzzzzz55555335<>>>,agggljff0zzzzzzzz",
"zzzzfgfljzzzzzzzzzzzzzzzzzzzzzzzzz53353575ekjjjlgjljljlzzzzzzzzz",
"zzzzllfgjzzzzzzzzzzzzzzzzzzzzzzzzz75373357elggjlgfgfgfgzzzzzzzzz",
"zzzzlggjjzzzzzzzzzzzzzzzzzzzzzzzzz57733757qdggfhgjjfffgzzzzzzzzz",
"zzzzjfgfjzzzzzzzzzzzzzzzzzzzzzzzzz75333333qldgglgfggggfzzzzzzzzz",
"zzzzggfgjzzzzzzzzzzzzzzzzzzzzzzzzz53357357effflgfhfjfjgzzzzzzzzz",
"zzzzgljllzzzzzzzzzzzzzzzzzzzzzzzzz55573555qglggfllgjfggzzzzzzzzz",
"zzzzgggflljjjjjjjjjjjjjjjjjjjjjjgs85555557qdjfjffgfjzzzzzzzzzzzz",
"zzzzggllggjflljflljflljflljflljfgs83555533qllglgjljzzzzzzzzzzzzz",
"zzzzgglffgfglggglggglggglggglggggf85353577rfgfjljflzzzzzzzzzzzzz",
"zzzzgfgfjljlllggllggllggllggllgggs83535344rgljfglggzzzzzzzzzzzzz",
"zzzzjfjfjfjfjfjfjfjfjfjfjfjfjfjfgf97333537qflgllggfzzzzzzzzzzzzz",
"zzzzlglglglglglglglglglglglglglggs87355573qllfffhlhzzzzzzzzzzzzz",
"zzzzgglggfjlgfjlgfjlgfjlgfjlgfjlfs93537344rfggfgljlzzzzzzzzzzzzz",
"zzzzzjjgljfgljfgljfgljfgljfgljfggfyeeyrettugflglgflzzzzzzzzzzzzz",
"zzzzzzzzzfjljlglglgfjlglglgfjlgljfjfgfgfjlgljfjffjgzzzzzzzzzzzzz",
"zzzzzzzzzgfgfgfjfjljfgfjfjljfgfjlgllggfgfgfjlglggllzzzzzzzzzzzzz",
"zzzzzzzzzljljljfjfgfjljfjfgfjljfgfhlhfgfjljfgfjlfgfzzzzzzzzzzzzz",
"zzzzzzzzzjfgfglglgljfglglgljfglgljfglggjfglgljfgjljzzzzzzzzzzzzz",
"zzzzzzzzzlglgfjlgfjlglgfjlglgfjlglgfjlglglgfjlglljlzzzzzzzzzzzzz",
"zzzzzzzzzjfjljfgljfgfjljfgfjljfgfjljfgfjfjljfgfjgfgzzzzzzzzzzzzz",
"zzzzzzzzzfjfglglglgljfgfjljfglgljfgfjljfjfgfjljffjjzzzzzzzzzzzzz",
"zzzzzzzzzglgfjfjfjfjlgljfglgfjfjlgljfglglgljfglgglfzzzzzzzzzzzzz",
"zzzzzzzzzlgljfjfjfjfglgfjlgljfjfgfjlgfjlgfjlgfjlfgfzzzzzzzzzzzzz",
"zzzzzzzzzjfjlglglglgfjljfgfjlglgljfgljfgljfgljfgjljzzzzzzzzzzzzz",
"zzzzzzzzzfjfgfjlgfjljfgfjljfgfggglglglglglglglglljlzzzzzzzzzzzzz",
"zzzzzzzzzglgljfgljfglgljfglgljggfjfjfjfjfjfjfjfjgfgzzzzzzzzzzzzz",
"zzzzzzzzzgjlgllggggggfjlggggggggggggglfgjfjfggglfgfzzzzzzzzzzzzz",
"zzzzzzzzzffgfjjjjjjjjjjjjjjjjjjjjjjjjjjglglgjjljjljzzzzzzzzzzzzz",
"zzzzzzzzzlglgzzzzzzzzzzzzzzzzzzzzzzzzzjjgfgzzzzfljlzzzzzzzzzzzzz",
"zzzzzzzzzjfjlzzzzzzzzzzzzzzzzzzzzzzzzzjfljgzzzzggfgzzzzzzzzzzzzz",
"zzzzzzzzzjljjzzzzzzzzzzzzzzzzzzzzzzzzzjgglgzzzzlfjgzzzzzzzzzzzzz",
"zzzzzzzzzfgfjzzzzzzzzzzzzzzzzzzzzzzzzzjgfjfzzzzjgllzzzzzzzzzzzzz",
"zzzzzzzzzllgjzzzzzzzzzzzzzzzzzzzzzzzzzjgfgjzzzzffgfzzzzzzzzzzzzz",
"zzzzzzzzzgjfgzzzzzzzzzzzzzzzzzzzzzzzzzgljglzzzzgjljzzzzzzzzzzzzz",
"zzzzzzzzzfjljzzzzzzzzzzzzzzzzzzzzzzzzzzgjllzzzzgfjjzzzzzzzzzzzzz",
"zzzzzzzzzzzzzzzzzzzzzzzzzzzzzzzzzzzzzzzzzzzzzzzzzzzzzzzzzzzzzzzz",
"zzzzzzzzzzzzzzzzzzzzzzzzzzzzzzzzzzzzzzzzzzzzzzzzzzzzzzzzzzzzzzzz",
"zzzzzzzzzzzzzzzzzzzzzzzzzzzzzzzzzzzzzzzzzzzzzzzzzzzzzzzzzzzzzzzz",
"zzzzzzzzzzzzzzzzzzzzzzzzzzzzzzzzzzzzzzzzzzzzzzzzzzzzzzzzzzzzzzzz",
"zzzzzzzzzzzzzzzzzzzzzzzzzzzzzzzzzzzzzzzzzzzzzzzzzzzzzzzzzzzzzzzz",
"zzzzzzzzzzzzzzzzzzzzzzzzzzzzzzzzzzzzzzzzzzzzzzzzzzzzzzzzzzzzzzzz",
"zzzzzzzzzzzzzzzzzzzzzzzzzzzzzzzzzzzzzzzzzzzzzzzzzzzzzzzzzzzzzzzz"
};
