/* XPM */
static char *enemy1[] = {
/* columns rows colors chars-per-pixel */
"64 64 76 1 ",
"  c #020000",
". c #180403",
"X c #3F0B08",
"o c #3A2615",
"O c #3C2814",
"+ c #54390F",
"@ c #5B3E0E",
"# c #5C3F0E",
"$ c #4C3411",
"% c #5E4010",
"& c #9A1A14",
"* c #E7211E",
"= c #E7231F",
"- c #E1261D",
"; c #E7241F",
": c #E7271E",
"> c #E7271F",
", c #E8271E",
"< c #E7281E",
"1 c #EB281F",
"2 c #E82E1D",
"3 c #E7331F",
"4 c #E8321C",
"5 c #E73E1F",
"6 c #9A6B19",
"7 c #8F5E35",
"8 c #905F34",
"9 c #966433",
"0 c #906034",
"q c #916135",
"w c #926034",
"e c #996533",
"r c #9B6732",
"t c #B87C2C",
"y c #F17712",
"u c #E64920",
"i c #E64C20",
"p c #E55821",
"a c #E65B20",
"s c #BF822B",
"d c #F28310",
"f c #F08D13",
"g c #F09613",
"h c #C4A31C",
"j c #D4B714",
"k c #F8B709",
"l c #F9BD08",
"z c #E7A61F",
"x c #EFBD15",
"c c #C0832B",
"v c #D18F27",
"b c #D29027",
"n c #D39027",
"m c #D49127",
"M c #DA9525",
"N c #DA9625",
"B c #E49A23",
"V c #E49B23",
"C c #E49C23",
"Z c #E49E23",
"A c #E69E23",
"S c #E39B24",
"D c #E49A24",
"F c #E5A022",
"G c #FAC506",
"H c #F4CE0E",
"J c #F9DF07",
"K c #F0C114",
"L c #F2C910",
"P c #FCE604",
"I c #FEEF00",
"U c #FEED03",
"Y c #FFF000",
"T c #FEF100",
"R c #FEF400",
"E c #83CE66",
/* pixels */
"EEEEEEEEEEEEEEEEEEEEEEEEEEEEEEEEEEEEEEEEEEEEEEEEEEEEEEEEEEEEEEEE",
"EEEEEEEEEEEEEEEEEEEEEEEEEEEEEEEEEEEEEEEEEEEEEEEEEEEEEEEEEEEEEEEE",
"EEEEEEEEEEEEEEEEEEEEEEEEEEEEEEEEEEEEEEEEEEEEEEEEEEEEEEEEEEEEEEEE",
"EEEEEEEEEEEEEEEEEEEEEEEEEEEEEEEEEEEEEEEEEEEEEEEEEEEEEEEEEEEEEEEE",
"EEEEEEEEEEEEEEEEEEEEEEEEEEEEEEEEEEEEEEEEEEEEEEEEEEEEEEEEEEEEEEEE",
"EEEEEEEEEEEEEEEEEEEEEEEEEEEEEEEEEEEEEEEEEYYYYYEEEEEEEEEEEEEEEEEE",
"EEEEEEEEEEEEEEEEEEEEEEEEEEEEEEEEEEEEEEEEEYYYYYEEEEEEEEEEEEEEEEEE",
"EEEEEEEEEEEEEEEEEEEEEEEEEEEEEEEEEEEEEEEEEYYYYYEEEEEEEEEEEEEEEEEE",
"EEEEEEEEEEEEEEEEEEEEEEEEEEEEEEEEEEEEEEEEEYRRIREEEEEEEEEEEEEEEEEE",
"EEEEEEEEEEEEEEEEEEEEEEEEEEEEEEEEEEEEEEEEElGGGkEEEEEEEEEEEEEEEEEE",
"EEEEEEEEEEEEEEEEEEEEEEEEEEEEEEEE::11<<<<:23442::<<EEEEEEEEEEEEEE",
"EEEEEEEEEEEEEEEEEEEEEEEEEEEEEEEE:<<<::::::::::::<<EEEEEEEEEEEEEE",
"EEEEEEEEEEEEEEEEEEEEEEEEEEEEEEEE::::::::::::::::<:EEEEEEEEEEEEEE",
"EEEEEEEEEEEEEEEEEEEEEEEEEEEEEEEE::::::::::::::::<:EEEEEEEEEEEEEE",
"EEEEEEEEEEEEEEEEEEEEEEEEEEEEEEEE::::::::::::::::::EEEEEEEEEEEEEE",
"EEEEEEEEEEEEEEEEEEEEEEEEEEEEEEEE::::::::::::::::::EEEEEEEEEEEEEE",
"EEEEEEEEEEEEEEEEEEEEEEEEEEEEEEEE::::::::::::::::::EEEEEEEEEEEEEE",
"EEEEEEEEEEEEEEEEEEEEEEEEEEEEEEEE::::::::::::::::::EEEEEEEEEEEEEE",
"EEEEEEEEEEEEEEEEEEEEEEEEEEEEEEEE1111111111111111>:EEEEEEEEEEEEEE",
"EEEEEEEEEEEEEEEEEEEEEEEEEEEEEEEE&&&&&&&&&&&&&&&&&&EEEEEEEEEEEEEE",
"EEEEEEEEEEEEEEEEEEEEEEEEEEEEEEEE                  EEEEEEEEEEEEEE",
"EEEEEEEEEEEEEEEEEEEEEEEEEEEEEEEE                  EEEEEEEEEEEEEE",
"EEEEEEEEEEEEEEEEEEEEEEEEEEEEEEEE                  EEEEEEEEEEEEEE",
"EEEEEEEEEEEEEEEEEEEEEEEEEEEEEEEE                  EEEEEEEEEEEEEE",
"EEEEEEEEEEEEEEEEEEEEEEEEEEEEEEEE%@%@$oooO+%%%%%%%%6EEEEEEEEEEEEE",
"EEEEEEEEEEEEEEEEEEYYYYYEEEEqq00eMZZZs0009mCCZZZZZCCFZFCEEEEEEEEE",
"EEEEEEEEEEEEEEEEEEYYYYYEEEEq000rMZZZc8000mZZZFZFZVCCZZCEEEEEEEEE",
"EEEEEEEEEEEEEEEEEEYYYYYEEEEq000rMZZZc0009bZZVVVVFVVSZSFEEEEEEEEE",
"EEEEEEEEEEEEEEEEEEYYYYYEEEEq777eMZZZc8887bZZZVVZZFZZVCCEEEEEEEEE",
"EEEEEEEEEEEEEEEEEEYYYYYEEEEjhhhhVZZZvtttsMZVVVZZVVZZSZCEEEEEEEEE",
"EEEEEYYYYYYYYYYYYYYYYYYYYYYYYYRPFCFZCFCCVZZZVFZZVZZVZSZEEEEEEEEE",
"EEEEEYYYYYYYYYYYYYYYYYYYYYYYYYYPzFCCCCFCVZSZZZZFVVVZZZZEEEEEEEEE",
"EEEEEYYYYYYYYYYYYYYYYYYYYYYYYYIPzCCFZCCCZZZZZZZZVZVZZZVEEEEEEEEE",
"EEEEEYYYYYYYYYYIYYYYYYYYYYYYYYYPzCFCSCCCZZVVVVZZVZVVZZZEEEEEEEEE",
"EEEEEYYYYEEEEEEEEEYYYYYYYYYYYYYIHLLLLLLLLLLLLLLLLLLLLLHUIYYEEEEE",
"EEEEEYYYYEEEEEEEEEYYYYYYYYYYYYYYYYYYYYYYYYYRYYYYYYYYYRYYIIYEEEEE",
"EEEEEYYYYEEEEEEEEEYYYYYYYYYYYYYYYYYYYYYYYYYYYYYYYYYYYYYYYYYEEEEE",
"EEEEEYYYYEEEEEEEEEYYYYYYYYYYYYYYYYYYYYYYYYYYYYYIYYYYYYYYYYYEEEEE",
"EEEEEYYYYEEEEEEEEEYYYYYYYYYYYYYIYYYRYYYRYYYYYYIIYYYYYYYYYYYEEEEE",
"EEEEEYYITYTIIITYYYYYYYPKxxKgyyyyyyyyyyyyyyyyyfxxKxfyyydEEEEEEEEE",
"EEEEEYYYYYYYYYYYYYYYYYPZZSZp====<============uVVSVu==>=EEEEEEEEE",
"EEEEEYYYYYYYYYYYYYYYYYPZSZZa=:::<::::::::::::iVVZVi=:::EEEEEEEEE",
"EEEEEYYYYYYYYYYYYYYYYYJZZSZa:::::::::::::::::uCCVVi:::,EEEEEEEEE",
"EEEEEYYYYYYYYYYYYYYYYYJFZZZa=:::::::::::::::<iCCVVu:::>EEEEEEEEE",
"EEEEEEEEEEEEEEEEEERYYYPEEEEEEEEE:::::::::::::3iiui5EEEEEEEEEEEEE",
"EEEEEEEEEEEEEEEEEEYYYYREEEEEEEEE::::::::::::::=:<:EEEEEEEEEEEEEE",
"EEEEEEEEEEEEEEEEEEYYYYYEEEEEEEEE::::::::::::::::::EEEEEEEEEEEEEE",
"EEEEEEEEEEEEEEEEEEYYYYYEEEEEEEEE::::::::::::::::::EEEEEEEEEEEEEE",
"EEEEEEEEEEEEEEEEEEYYYYYEEEEEEEEE------------------EEEEEEEEEEEEEE",
"EEEEEEEEEEEEEEEEEEEEEEEEEEEEEEEEXXXXXXXXXXXXXXXXXX.    EEEEEEEEE",
"EEEEEEEEEEEEEEEEEEEEEEEEEEEEEEEE                       EEEEEEEEE",
"EEEEEEEEEEEEEEEEEEEEEEEEEEEEEEEE                       EEEEEEEEE",
"EEEEEEEEEEEEEEEEEEEEEEEEEEEEEEEE                       EEEEEEEEE",
"EEEEEEEEEEEEEEEEEEEEEEEEEEEEEEEE                       EEEEEEEEE",
"EEEEEEEEEEEEEEEEEEEEEEEEEEEE         EEEEEEEEEEEEE     EEEEEEEEE",
"EEEEEEEEEEEEEEEEEEEEEEEEEEE          EEEEEEEEEEEEE     EEEEEEEEE",
"EEEEEEEEEEEEEEEEEEEEEEEEEEE          EEEEEEEEEEEEE     EEEEEEEEE",
"EEEEEEEEEEEEEEEEEEEEEEEEEEE          EEEEEEEEEEEEE     EEEEEEEEE",
"EEEEEEEEEEEEEEEEEEEEEEEEEEE          EEEEEEEEEEEEE     EEEEEEEEE",
"EEEEEEEEEEEEEEEEEEEEEEEEEEEEEEEEEEEEEEEEEEEEEEEEEEEEEEEEEEEEEEEE",
"EEEEEEEEEEEEEEEEEEEEEEEEEEEEEEEEEEEEEEEEEEEEEEEEEEEEEEEEEEEEEEEE",
"EEEEEEEEEEEEEEEEEEEEEEEEEEEEEEEEEEEEEEEEEEEEEEEEEEEEEEEEEEEEEEEE",
"EEEEEEEEEEEEEEEEEEEEEEEEEEEEEEEEEEEEEEEEEEEEEEEEEEEEEEEEEEEEEEEE",
"EEEEEEEEEEEEEEEEEEEEEEEEEEEEEEEEEEEEEEEEEEEEEEEEEEEEEEEEEEEEEEEE"
};
