/* XPM */
static char *enemy2[] = {
/* columns rows colors chars-per-pixel */
"64 64 97 2 ",
"   c black",
".  c #040401",
"X  c #0D0202",
"o  c #3B0A08",
"O  c #490D09",
"+  c #4A0C0A",
"@  c #52361D",
"#  c #573A1C",
"$  c #6D4A18",
"%  c #7B5415",
"&  c #B71F18",
"*  c #B71F19",
"=  c #E7271D",
"-  c #E7251E",
";  c #E4261E",
":  c #E7261E",
">  c #E7271F",
",  c #E8271F",
"<  c #E7281E",
"1  c #E8281E",
"2  c #EA281E",
"3  c #EB291E",
"4  c #E82E1D",
"5  c #E7321C",
"6  c #E8301C",
"7  c #E9321C",
"8  c #E73B1F",
"9  c #E73E1F",
"0  c #805814",
"q  c #815914",
"w  c #835A19",
"e  c #906316",
"r  c #905F34",
"t  c #906033",
"y  c #946232",
"u  c #956532",
"i  c #906034",
"p  c #916135",
"a  c #936135",
"s  c #9B6732",
"d  c #996931",
"f  c #A46E30",
"g  c #E6401F",
"h  c #E6451F",
"j  c #EA5214",
"k  c #EA5414",
"l  c #EA5514",
"z  c #E95B16",
"x  c #E95D16",
"c  c #E67A1D",
"v  c #E67F1D",
"b  c #E64C20",
"n  c #E64D20",
"m  c #E56921",
"M  c #E56A21",
"N  c #E6801D",
"B  c #E6811D",
"V  c #F38610",
"C  c #F7AB0A",
"Z  c #F9BE07",
"A  c #F7B109",
"S  c #F9BD08",
"D  c #E7A71F",
"F  c #C2842A",
"G  c #C68729",
"H  c #D18F27",
"J  c #DA9625",
"K  c #DB9725",
"L  c #DE9922",
"P  c #D29028",
"I  c #E58E21",
"U  c #E59421",
"Y  c #E59521",
"T  c #E49523",
"R  c #E49B23",
"E  c #E39C23",
"W  c #E59C23",
"Q  c #E59D23",
"!  c #E79F23",
"~  c #E09A24",
"^  c #E49D24",
"/  c #E59E24",
"(  c #E4A420",
")  c #E8A023",
"_  c #E9A123",
"`  c #E8A024",
"'  c #E7A820",
"]  c #E4C80F",
"[  c #E4CC0D",
"{  c #FBCB06",
"}  c #EED908",
"|  c #FCE604",
" . c #FDE705",
".. c #FFEF00",
"X. c #FEF100",
"o. c #FFF400",
"O. c #83CE66",
/* pixels */
"O.O.O.O.O.O.O.O.O.O.O.O.O.O.O.O.O.O.O.O.O.O.O.O.O.O.O.O.O.O.O.O.O.O.O.O.O.O.O.O.O.O.O.O.O.O.O.O.O.O.O.O.O.O.O.O.O.O.O.O.O.O.O.O.",
"O.O.O.O.O.O.O.O.O.O.O.O.O.O.O.O.O.O.O.O.O.O.O.O.O.O.O.O.O.O.O.O.O.O.O.O.O.O.O.O.O.O.O.O.O.O.O.O.O.O.O.O.O.O.O.O.O.O.O.O.O.O.O.O.",
"O.O.O.O.O.O.O.O.O.O.O.O.O.O.O.O.O.O.O.O.O.O.O.O.O.O.O.O.O.O.O.O.O.O.O.O.O.O.O.O.O.O.O.O.O.O.O.O.O.O.O.O.O.O.O.O.O.O.O.O.O.O.O.O.",
"O.O.O.O.O.O.O.O.O.O.O.O.O.O.O.O.O.O.O.O.O.O.O.O.O.O.O.O.O.O.O.O.O.O.O.O.O.O.O.O.O.O.O.O.O.O.O.O.O.O.O.O.O.O.O.O.O.O.O.O.O.O.O.O.",
"O.O.O.O.O.O.O.O.O.O.O.O.O.O.O.O.O.O.O.O.O.O.O.O.O.O.O.O.O.O.O.O.O.O.O.O.O.O.O.O.O.O.O.O.O.O.O.O.O.O.O.O.O.O.O.O.O.O.O.O.O.O.O.O.",
"O.O.O.O.O.O.X.X...X.X.o.Z 4 : , : < < : : < : < < < O.O.O.O.O.O.O.O.O.O.O.O.O.O.O.O.O.O.O.O.O.O.O.O.O.O.O.O.O.O.O.O.O.O.O.O.O.O.",
"O.O.O.O.O.O.X...X...X.X.Z 4 : < < : < : < : < : : : O.O.O.O.O.O.O.O.O.O.O.O.O.O.O.O.O.O.O.O.O.O.O.O.O.O.O.O.O.O.O.O.O.O.O.O.O.O.",
"O.O.O.O.O.O.X.X...X.X.X.Z 4 < : : < : < : < : < < < O.O.O.O.O.O.O.O.O.O.O.O.O.O.O.O.O.O.O.O.O.O.O.O.O.O.O.O.O.O.O.O.O.O.O.O.O.O.",
"O.O.O.O.O.O.X...X.....X.Z 4 1 < : < : : < : < : < : O.O.O.O.O.O.O.O.O.O.O.O.O.O.O.O.O.O.O.O.O.O.O.O.O.O.O.O.O.O.O.O.O.O.O.O.O.O.",
"O.O.O.O.O.O.X.X...X.X.o.Z 4 < : < : < O.O.O.O.O.O.O.O.O.O.O.O.O.X.X.X.X.X.X.O.O.O.O.O.O.O.O.O.O.O.O.O.O.O.O.O.O.O.O.O.O.O.O.O.O.",
"O.O.O.O.O.O.X...X...X.o.Z 4 : < : < : O.O.O.O.O.O.O.O.O.O.O.O.O...X...X...X.O.O.O.O.O.O.O.O.O.O.O.O.O.O.O.O.O.O.O.O.O.O.O.O.O.O.",
"O.O.O.O.O.O.X.X...X...X.Z 4 < : < : < O.O.O.O.O.O.O.O.O.O.O.O.O.X...X...X.X.O.O.O.O.O.O.O.O.O.O.O.O.O.O.O.O.O.O.O.O.O.O.O.O.O.O.",
"O.O.O.O.O.O.X...X...X.o.S 4 : < < : < O.O.O.O.O.O.O.O.O.O.O.O.O.X.o.o.o.o.o.O.O.O.O.O.O.O.O.O.O.O.O.O.O.O.O.O.O.O.O.O.O.O.O.O.O.",
"O.O.O.O.O.O.X.X...X...X.{ 7 : : : < < O.O.O.O.O.O.O.O.O.O.O.O.O.C A A A A A V O.O.O.O.O.O.O.O.O.O.O.O.O.O.O.O.O.O.O.O.O.O.O.O.O.",
"O.O.O.O.O.O.X...X...X...X.O.O.O.O.O.O.< : < : < : < : < : < : < < < < < < < < : , < : < , O.O.O.O.O.O.O.O.O.O.O.O.O.O.O.O.O.O.O.",
"O.O.O.O.O.O.X.X...X...X...O.O.O.O.O.O.: < : < : < : < : < : < : < < < < < < < < : : < : : O.O.O.O.O.O.O.O.O.O.O.O.O.O.O.O.O.O.O.",
"O.O.O.O.O.O.X.X...X...X...O.O.O.O.O.O.: : < : < : < : < : < : < < : < : < : : : < : < : > O.O.O.O.O.O.O.O.O.O.O.O.O.O.O.O.O.O.O.",
"O.O.O.O.O.O.X...X...X...X.O.O.O.O.O.O.: < : < : < : < : < : < : : < : < : < : : : < : < > O.O.O.O.O.O.O.O.O.O.O.O.O.O.O.O.O.O.O.",
"O.O.O.O.O.O.X.X...X...X...O.O.O.O.O.O.: : < : < : < = = : < : < < : < : < : = : < : < : < O.O.O.O.O.O.O.O.O.O.O.O.O.O.O.O.O.O.O.",
"O.O.O.O.O.O.X...X...X...X.O.O.O.O.O.O., < : < : : : : 2 < : < : : < : < : < , , : < : < : O.O.O.O.O.O.O.O.O.O.O.O.O.O.O.O.O.O.O.",
"O.O.O.O.O.O.X.X...X...X...O.O.O.O.O.O.1 : 1 1 , , , , 2 , , , 1 < , 1 2 , 3 , 3 < , , , > O.O.O.O.O.O.O.O.O.O.O.O.O.O.O.O.O.O.O.",
"O.O.O.O.O.O.X...X...X...X.O.O.O.O.O.O.3 1 1 1 1 3 , , 2 3 3 , 1 1 1 1 : 3 1 , 1 < < 1 1 > O.O.O.O.O.O.O.O.O.O.O.O.O.O.O.O.O.O.O.",
"O.O.O.O.O.O.X.X...X...X...O.O.O.O.O.O.& & & * * & & & & * * * * & & & & & & & & & * * * * O.O.O.O.O.O.O.O.O.O.O.O.O.O.O.O.O.O.O.",
"O.O.O.O.O.O.X...X...X...X.O.O.O.O.O.O.X X X X X X X X X X X X X X X X X X X X X X X X X X O.O.O.O.O.O.O.O.O.O.O.O.O.O.O.O.O.O.O.",
"O.O.O.O.O.O.X.X...X...X.X.O.O.O.O.O.O.                                                    O.O.O.O.O.O.O.O.O.O.O.O.O.O.O.O.O.O.O.",
"O.O.O.O.O.O.X...X...X.....O.O.O.O.O.O.                                                    O.O.O.O.O.O.O.O.O.O.O.O.O.O.O.O.O.O.O.",
"O.O.O.O.O.O.X.X.X.....X.X.O.O.O.O.O.O.                                                    O.O.O.O.O.O.O.O.O.O.O.O.O.O.O.O.O.O.O.",
"O.O.O.O.O.O.X.....X...X.} d r p p p t w q % q % q $ @ # @ @ @ # % q q q q q % q q q q % e L ! ! Q Q Q O.O.O.O.O.O.O.O.O.O.O.O.O.",
"O.O.O.O.O.O.X.X.X...X.X.[ u t p r p y P ! ! ` ` _ G p p p a p d J ` ` ` _ ! _ ! _ ` ` ! ) E E E E Q E O.O.O.O.O.O.O.O.O.O.O.O.O.",
"O.O.O.O.O.O.X.....X.X.X.[ u r p t r y H ! ! E E _ F p r p p p s K ` E E ! R R ! E E E ! E E ) E Q E Q O.O.O.O.O.O.O.O.O.O.O.O.O.",
"O.O.O.O.O.O.X.X.X.X.X.X.[ u p t a a y H ! R E R ! F i p r p r s J E ` E ` E E E E E ) E E ) E ) E E E O.O.O.O.O.O.O.O.O.O.O.O.O.",
"O.O.O.O.O.O. . . . . .| ] u t p r t y H R ! R ! E G d s s s s f K Q E E E E R ! ! ( L E ) L E E ) E ) O.O.O.O.O.O.O.O.O.O.O.O.O.",
"O.O.O.O.O.O.' ' D D D ' ( O.O.O.O.O.O.E ) E L ) ) L J J J J K J E E E E ) E ) E E E E ! E E E ` E ) E O.O.O.O.O.O.O.O.O.O.O.O.O.",
"O.O.O.O.O.O.E E E E E E E O.O.O.O.O.O.E L E ) E E E E ) Q Q Q Q E Q E ) E E E E ! E E E ` E E E E E E O.O.O.O.O.O.O.O.O.O.O.O.O.",
"O.O.O.O.O.O.) L E ) E E E O.O.O.O.O.O.R D E ) E E E E E E Q Q E ) E ) E E E ) L E E E E E ` E ` E ( E O.O.O.O.O.O.O.O.O.O.O.O.O.",
"O.O.O.O.O.O.Q Q ) ) ` E ` O.O.O.O.O.O.! E E L ) E ) E ) E ) Q Q E E E E E ! E ( ( L ) E E E E E ! L ) O.O.O.O.O.O.O.O.O.O.O.O.O.",
"O.O.O.O.O.O.M M M M M M M O.O.O.O.O.O.E E E ) E ) T v v v v v v L E E E E E E E E ) E ) E Q E Q E E E O.O.O.O.O.O.O.O.O.O.O.O.O.",
"O.O.O.O.O.O.: : ; ; : : : O.O.O.O.O.O.E E ) E E L B j l j l l z T ) E ` E ! R ! E E E E ! O.O.O.O.O.O.O.O.O.O.O.O.O.O.O.O.O.O.O.",
"O.O.O.O.O.O.: < : < : : < O.O.O.O.O.O.` E E E E Q N l l l l l x T E E E E E ` E E ) E E E O.O.O.O.O.O.O.O.O.O.O.O.O.O.O.O.O.O.O.",
"O.O.O.O.O.O.< : < : : : < O.O.O.O.O.O.E E ) E Q Q N l j l l l x T ) E ` E ` E E E E ` E ` O.O.O.O.O.O.O.O.O.O.O.O.O.O.O.O.O.O.O.",
"O.O.O.O.O.O.< < : < : < : O.O.O.O.O.O.T L R T T T c k j j j j z B R T T T ~ ~ Y ~ T T T Y O.O.O.O.O.O.O.O.O.O.O.O.O.O.O.O.O.O.O.",
"O.O.O.O.O.O.< < < : < : < < : < > > : 9 9 9 b 9 9 8 5 4 5 5 5 5 h h 9 h g 9 9 9 9 9 9 h 8 < : < : < : < : : : : > O.O.O.O.O.O.O.",
"O.O.O.O.O.O.: < : < : < < : < : > < < : : - - - : : : : : : : : : : < : : : : : : : < : : < < : < : < : < : : : > < O.O.O.O.O.O.",
"O.O.O.O.O.O.< : < : < : : < : < < < < : : : - - < : < : : : < : : : : : < : : : : : : : : < : < : < : < : < > > < : O.O.O.O.O.O.",
"O.O.O.O.O.O.: < : < : < : < : < : < < : : : : : : < : < : < : < : : : < : < : < : : : < : < < : < : < : , , - - : : O.O.O.O.O.O.",
"O.O.O.O.O.O.O.< < : < : < : < : < : < < : : : < < : < : < : < : : : < : < : < : < : < : : < : < : < : b b b b b n n O.O.O.O.O.O.",
"O.O.O.O.O.O.O.O.O.O.O.O.O.O.O.O.O.O.O.: < : < : : < : < : < : < : < : < : < : < : < : < < O.O.O.O.O.O.R L R R L R R O.O.O.O.O.O.",
"O.O.O.O.O.O.O.O.O.O.O.O.O.O.O.O.O.O.O.< : < : < < : < : < : < : < : < : < : < : < : < : : O.O.O.O.O.O.R ! R ! ! E ! O.O.O.O.O.O.",
"O.O.O.O.O.O.O.O.O.O.O.O.O.O.O.O.O.O.O.< : < : < : < : < : < : < < : < : : < : < : < : < > O.O.O.O.O.O.! ! R ! E ` E O.O.O.O.O.O.",
"O.O.O.O.O.O.O.O.O.O.O.O.O.O.O.O.O.O.O.: ; ; ; : ; ; ; ; ; : ; ; ; ; ; : ; ; ; : ; ; : : > O.O.O.O.O.O.R E ! E E E ( O.O.O.O.O.O.",
"O.O.O.O.O.O.O.O.O.O.O.O.O.O.O.O.O.O.O.+ + + + + + + + + + + + + + O + + + O + + + + + + o             O.O.O.O.O.O.O.O.O.O.O.O.O.",
"O.O.O.O.O.O.O.O.O.O.O.O.O.O.O.O.O.O.O.                                                                O.O.O.O.O.O.O.O.O.O.O.O.O.",
"O.O.O.O.O.O.O.O.O.O.O.O.O.O.O.O.O.O.O.                                                                O.O.O.O.O.O.O.O.O.O.O.O.O.",
"O.O.O.O.O.O.O.O.O.O.O.O.O.O.O.O.O.O.O.                                                                O.O.O.O.O.O.O.O.O.O.O.O.O.",
"O.O.O.O.O.O.O.O.O.O.O.O.O.O.O.O.O.O.O.                                                                O.O.O.O.O.O.O.O.O.O.O.O.O.",
"O.O.O.O.O.O.O.O.O.O.O.O.O.                          O.O.O.O.O.O.O.O.O.O.O.O.O.O.O.O.O.O.O.            O.O.O.O.O.O.O.O.O.O.O.O.O.",
"O.O.O.O.O.O.O.O.O.O.O.O.O.                          O.O.O.O.O.O.O.O.O.O.O.O.O.O.O.O.O.O.O.            O.O.O.O.O.O.O.O.O.O.O.O.O.",
"O.O.O.O.O.O.O.O.O.O.O.O.O.                          O.O.O.O.O.O.O.O.O.O.O.O.O.O.O.O.O.O.O.            O.O.O.O.O.O.O.O.O.O.O.O.O.",
"O.O.O.O.O.O.O.O.O.O.O.O.O.                          O.O.O.O.O.O.O.O.O.O.O.O.O.O.O.O.O.O.O.            O.O.O.O.O.O.O.O.O.O.O.O.O.",
"O.O.O.O.O.O.O.O.O.O.O.O.O.O.O.O.O.O.O.O.O.O.O.O.O.O.O.O.O.O.O.O.O.O.O.O.O.O.O.O.O.O.O.O.O.O.O.O.O.O.O.O.O.O.O.O.O.O.O.O.O.O.O.O.",
"O.O.O.O.O.O.O.O.O.O.O.O.O.O.O.O.O.O.O.O.O.O.O.O.O.O.O.O.O.O.O.O.O.O.O.O.O.O.O.O.O.O.O.O.O.O.O.O.O.O.O.O.O.O.O.O.O.O.O.O.O.O.O.O.",
"O.O.O.O.O.O.O.O.O.O.O.O.O.O.O.O.O.O.O.O.O.O.O.O.O.O.O.O.O.O.O.O.O.O.O.O.O.O.O.O.O.O.O.O.O.O.O.O.O.O.O.O.O.O.O.O.O.O.O.O.O.O.O.O.",
"O.O.O.O.O.O.O.O.O.O.O.O.O.O.O.O.O.O.O.O.O.O.O.O.O.O.O.O.O.O.O.O.O.O.O.O.O.O.O.O.O.O.O.O.O.O.O.O.O.O.O.O.O.O.O.O.O.O.O.O.O.O.O.O.",
"O.O.O.O.O.O.O.O.O.O.O.O.O.O.O.O.O.O.O.O.O.O.O.O.O.O.O.O.O.O.O.O.O.O.O.O.O.O.O.O.O.O.O.O.O.O.O.O.O.O.O.O.O.O.O.O.O.O.O.O.O.O.O.O."
};
