/* XPM */
static char *exit[] = {
/* columns rows colors chars-per-pixel */
"64 64 43 1 ",
"  c #EA510F",
". c #EA5210",
"X c #EA5412",
"o c #EA5414",
"O c #EA5514",
"+ c #EA5817",
"@ c #EA5818",
"# c #EA5919",
"$ c #EB5A1B",
"% c #EB6023",
"& c #EC6225",
"* c #F18F61",
"= c #F29367",
"- c #F29468",
"; c #F39B72",
": c #F39D74",
"> c #83CE66",
", c #C4B897",
"< c #C4B898",
"1 c #C5B999",
"2 c #C5BA99",
"3 c #C9BD9E",
"4 c #F5AE8B",
"5 c #F5AF8C",
"6 c #F6B493",
"7 c #C9BEA0",
"8 c #D6CDB3",
"9 c #D7CDB4",
"0 c #DAD0B8",
"q c #F9C8AD",
"w c #F9C9AF",
"e c #FBDDCA",
"r c #FDEBDC",
"t c #FDEDDE",
"y c #F5EFE1",
"u c #F8F2E6",
"i c #FEF9EF",
"p c #FEFAF0",
"a c FloralWhite",
"s c #FFFAF1",
"d c #FFFCF3",
"f c #FFFDF4",
"g c #FFFFF7",
/* pixels */
">>>>>>>>>>>>>>>>>>>>>>>>>>>>>>>>>>>>>>>>>>>>>>>>>>>>>>>>>>>>>>>>",
">>>>>>>>>>>>>>>>>>>>>>>>>>>>>>>>>>>>>>>>>>>>>>>>>>>>>>>>>>>>>>>>",
">>>>>>>>>>>>>>>>>>>>>>>>>>>>>>>>>>>>>>>>>>>>>>>>>>>>>>>>>>>>>>>>",
">>>>>>>>>>>>>>>>>>>>>>>>>>>>>>>>>>>>>>>>>>>>>>>>>>>>>>>>>>>>>>>>",
">>>>>>>>>>>>>>>>>>>>>>>>>>>>>>>>>>>>>>>>>>>>>>>>>>>>>>>>>>>>>>>>",
">>>>>>>>>>>>>>>>>>>>>>>>>>>>>>>>>>>>>>>>>>>>>>>>>>>>>>>>>>>>>>>>",
">>>>>>>>>>>>>>>>>>>>>>>>>>>>>OOOOOO>>>>>>>>>>>>>>>>>>>>>>>>>>>>>",
">>>>>>>>>>>>>>>>>>>>>>>>>>>>>OOOOOO>>>>>>>>>>>>>>>>>>>>>>>>>>>>>",
">>>>>>>>>>>>>>>>>>>>>>>>>>>>>OOXOOO>>>>>>>>>>>>>>>>>>>>>>>>>>>>>",
">>>>>>>>>>>>>>>>>>>>>>>>>>>>>OO+OOO>>>>>>>>>>>>>>>>>>>>>>>>>>>>>",
">>>>>>>>>>>>>>>>>>>>>>>>>>>>>     X>>>>>>>>>>>>>>>>>>>>>>>>>>>>>",
">>>>>>>>>>>>>>>>>>>>>>>>>>>>>----==>>>>>>>>>>>>>>>>>>>>>>>>>>>>>",
">>>>>>>>>>>>>>>>>>>>>>>OXOOX&ediiie&XXOOO>>>>>>>>>>>>>>>>>>>>>>>",
">>>>>>>>>>>>>>>>>>>>>>>OXXOO&ediide&XOOOO>>>>>>>>>>>>>>>>>>>>>>>",
">>>>>>>>>>>>>>>>>>>>>>>XOOOX&edidde&OOOOO>>>>>>>>>>>>>>>>>>>>>>>",
">>>>>>>>>>>>>>>>>>>>>>>OOOOO&eddide&XXOOO>>>>>>>>>>>>>>>>>>>>>>>",
">>>>>>>>>>>>>>>>>>>>>>>XX + %ediide%...XX>>>>>>>>>>>>>>>>>>>>>>>",
">>>>>>>>>>>>>>>>>@+++X#:55556riiidr65555:#X+++#>>>>>>>>>>>>>>>>>",
">>>>>>>>>>>>>>>>>###OO#wdddgddiddiidgdgdw#O#++#>>>>>>>>>>>>>>>>>",
">>>>>>>>>>>>>>>>>OO##OOwgiiiiiiiiiidiiidw#X+++O>>>>>>>>>>>>>>>>>",
">>>>>>>>>>>>>>>>>#++#O#wdiiiiiiididiaaadq#X#+++>>>>>>>>>>>>>>>>>",
">>>>>>>>>>>>>>>>>XXXXOXwgidididiiiiiaaagqXOOOOO>>>>>>>>>>>>>>>>>",
">>>>>>>>>>>>>>>>>#+++#$wdiiiiiidiidiaaigw++##+#>>>>>>>>>>>>>>>>>",
">>>>>>>>>>>>oOOOX:wwwwwrdididiiiidiiaiiirwwwww:XOOOo>>>>>>>>>>>>",
">>>>>>>>>>>>OOOO 5ggdgddidiiididdiiidididddgdd5.OOOO>>>>>>>>>>>>",
">>>>>>>>>>>>OOOOX5diiiiiiidiiiiiiiidiiiiaaaaag4XOOOO>>>>>>>>>>>>",
">>>>>>>>>>>>OOOO 4daidiiiiiiidiididiiidiaaaaad4.OOOO>>>>>>>>>>>>",
">>>>>>>>>>>>XOXX 4gaiidididiiidiiiiiidiiaaaaag4 .ooo>>>>>>>>>>>>",
">>>>>>>>>>>>&&&&%6ddiiidiiidiiidiiiididiaaaaad6%&&&&>>>>>>>>>>>>",
">>>>>>OOOO.*eeeeeriidiiidiiidiiiididiiiiaaaaadreeeee*.OOOO>>>>>>",
">>>>>>OOOO.-ddddddidididididididdiiiiidiaaaaaaaddaga-.OOOO>>>>>>",
">>>>>>OOOO.-aaiidiiiiiiiiiiiiiiiiiididiiaaaaaaaaaaaa-.OOOO>>>>>>",
">>>>>>oooo.-aaaaaaaaaaaaaaaaaaaadiidiiidaaaaaaaaaaaa-.oooo>>>>>>",
">>>>>>+ooo.-aaaaaaaaaaaagasaagaadidididdaaaaaaaaaaaa-.oooo>>>>>>",
">>>>>>oooo ;aaaaaaaaaaauyyyyyyyyyyyyyytyuaaaaaaaaaaa;.oo+o>>>>>>",
">>>>>>>>>>>>aaaaaaaaaaa0377777777777,8370iaaaaaaaaaa>>>>>>>>>>>>",
">>>>>>>>>>>>aaaaaaaaaaa9<2<211112<2<,,,,9iiaaaaaaaaa>>>>>>>>>>>>",
">>>>>>>>>>>>aaaaaaaaaai9<<2<1111<2<2,,,,9iiaaaaaaaaa>>>>>>>>>>>>",
">>>>>>>>>>>>aaaaaaaaaaa8<1<2111122222,,,9saaaaaaaaaa>>>>>>>>>>>>",
">>>>>>>>>>>>aaaaaaaaaaa9<11<1111222222,28iaaaaaaaaaa>>>>>>>>>>>>",
">>>>>>>>>>>>aaaaaaaaaaa8<1111111<2<2111<9saaaaaaaaaa>>>>>>>>>>>>",
">>>>>>>>>>>>aaaaaaaaaaa8<11111112<2<111<9saaaaaaaaaa>>>>>>>>>>>>",
">>>>>>>>>>>>aaaaaaaaaii9<111111111<1111<9aaaaaaaaaaa>>>>>>>>>>>>",
">>>>>>>>>>>>aaaaaaaaaaa8<11111111111111<9saaaaaaaaaa>>>>>>>>>>>>",
">>>>>>>>>>>>aaaaaaaaaai9<11111111111111<9aisisaaaaaa>>>>>>>>>>>>",
">>>>>>>>>>>>aaaaaaaaaaa9<11111111111111<9asiaiaaaaaa>>>>>>>>>>>>",
">>>>>>>>>>>>aaaaaaaaaai9<11111111111111<8aasaaaaaaaa>>>>>>>>>>>>",
">>>>>>>>>>>>aaaaaaaaaii9<11111111111111<8asiaaaaaaaa>>>>>>>>>>>>",
">>>>>>>>>>>>iaaaaaaaaaa8<<<<11111111111<8iaaaaaaaaaa>>>>>>>>>>>>",
">>>>>>>>>>>>aaaaaaaaaaa8<<1111111111111<8iaaaaaaaaaa>>>>>>>>>>>>",
">>>>>>>>>>>>aaaaaaaaaaa8<11111111111111<8aaaaaaaaaaa>>>>>>>>>>>>",
">>>>>>>>>>>>aaaaaaaaaap8<11111111111111<8aaaaaaaaaaa>>>>>>>>>>>>",
">>>>>>>>>>>>aaaaaaaaaaa8<11111111111111<8apaaaaaaaaa>>>>>>>>>>>>",
">>>>>>>>>>>>aaaaaaaaaaa8<11111111111111<8aapaaaaaaaa>>>>>>>>>>>>",
">>>>>>>>>>>>aaaaaaaaaaa8<1111111111111<<8ppaaaaaaaaa>>>>>>>>>>>>",
">>>>>>>>>>>>aaaaaaaaaaa8<11111111111<<<<8paaaaaaaaaa>>>>>>>>>>>>",
">>>>>>>>>>>>aaaaaaaaaaa811111111111111118aaaaaaaaaaa>>>>>>>>>>>>",
">>>>>>>>>>>>aaaaaaaaaaa812221111111111118iaappppaaaa>>>>>>>>>>>>",
">>>>>>>>>>>>>>>>>>>>>>>>>>>>>>>>>>>>>>>>>>>>>>>>>>>>>>>>>>>>>>>>",
">>>>>>>>>>>>>>>>>>>>>>>>>>>>>>>>>>>>>>>>>>>>>>>>>>>>>>>>>>>>>>>>",
">>>>>>>>>>>>>>>>>>>>>>>>>>>>>>>>>>>>>>>>>>>>>>>>>>>>>>>>>>>>>>>>",
">>>>>>>>>>>>>>>>>>>>>>>>>>>>>>>>>>>>>>>>>>>>>>>>>>>>>>>>>>>>>>>>",
">>>>>>>>>>>>>>>>>>>>>>>>>>>>>>>>>>>>>>>>>>>>>>>>>>>>>>>>>>>>>>>>",
">>>>>>>>>>>>>>>>>>>>>>>>>>>>>>>>>>>>>>>>>>>>>>>>>>>>>>>>>>>>>>>>"
};
