/* XPM */
static char *floor[] = {
/* columns rows colors chars-per-pixel */
"64 64 137 2 ",
"   c #83CE66",
".  c #82CE65",
"X  c #A1C47E",
"o  c #CCB5A2",
"O  c #CCB5A1",
"+  c #CDB5A2",
"@  c #C3B89A",
"#  c #8CCB6D",
"$  c #82CE66",
"%  c #81CF64",
"&  c #B7BC90",
"*  c #FFA2CD",
"=  c #FFA2CE",
"-  c #F2A8C0",
";  c #92C972",
":  c #B6BC90",
">  c #FFA3CC",
",  c #FFA3CB",
"<  c #F0A8BF",
"1  c #81CF65",
"2  c #7FCF63",
"3  c #B5BC90",
"4  c #FFA1CF",
"5  c #F0A7C1",
"6  c #90C971",
"7  c #80CF64",
"8  c #84CE67",
"9  c #9AC679",
"0  c #A2C37F",
"q  c #A0C37F",
"w  c #C8BF8A",
"e  c #FFBA99",
"r  c #F4BB95",
"t  c #ADC282",
"y  c #A1C37F",
"u  c #90CA70",
"i  c #87CD69",
"p  c #DDAFAF",
"a  c #FCA4C9",
"s  c #FBA5C7",
"d  c #FAA3CB",
"f  c #FCC878",
"g  c #FFFC06",
"h  c #FFFC07",
"j  c #FEF11E",
"k  c #FBAFB0",
"l  c #FBA4C9",
"z  c #FBA4C8",
"x  c #B4BD8E",
"c  c #87CC6A",
"v  c #E0AEB2",
"b  c #FFC977",
"n  c yellow",
"m  c #FFF418",
"M  c #FFAEB3",
"N  c #FFA2CC",
"B  c #B8BD91",
"V  c #FFA4CF",
"C  c #FFA4CE",
"Z  c #F3A9C2",
"A  c #92C973",
"S  c #82CF66",
"D  c #91B46E",
"F  c #A58E7A",
"G  c #A19678",
"H  c #87C668",
"J  c #85D068",
"K  c #5BA73E",
"L  c #226F05",
"P  c #237006",
"I  c #2E7B11",
"U  c #77C35A",
"Y  c #84CF67",
"T  c #5CA73F",
"R  c #236F06",
"E  c #247007",
"W  c #2F7B12",
"Q  c #78C35B",
"!  c #91C972",
"~  c #61AC44",
"^  c #39851C",
"/  c #79C45C",
"(  c #9EC57C",
")  c #ECAABC",
"_  c #7EC961",
"`  c #82CD65",
"'  c #AEBF89",
"]  c #CDB4A2",
"[  c #CBB4A3",
"{  c #D9BE8E",
"}  c #FDD856",
"|  c #FFD953",
" . c #FFD954",
".. c #FFA1D0",
"X. c #FFFD04",
"o. c #A3C480",
"O. c #FEA5CA",
"+. c #BABB93",
"@. c #E2ADB3",
"#. c #E0ADB4",
"$. c #E8BC92",
"%. c #FEE637",
"&. c #FFE832",
"*. c #82CF65",
"=. c #94C073",
"-. c #C69898",
";. c #C9969A",
":. c #86CD68",
">. c #88CC6A",
",. c #A5C380",
"<. c #FBA8C0",
"1. c #FFA6C4",
"2. c #6DB750",
"3. c #2F7511",
"4. c #2C720E",
"5. c #6BB74E",
"6. c #27730A",
"7. c #FBA5C8",
"8. c #A0C37D",
"9. c #F3A3C1",
"0. c #F7A1C4",
"q. c #6CB74F",
"w. c #2B770E",
"e. c #79BA5A",
"r. c #5C8039",
"t. c #5A7C38",
"y. c #5A7D38",
"u. c #7DC860",
"i. c #6BB64E",
"p. c #247308",
"a. c #216F04",
"s. c #267209",
"d. c #226E05",
"f. c #75C058",
"g. c #4D9930",
"h. c #4B972E",
"j. c white",
/* pixels */
"                                                                                                                                ",
"                                                                                                                                ",
"                                                                                                                                ",
"                                                                                                                                ",
"                                                                                                                                ",
"                                                    . . . . . .                                                                 ",
"                                                . X o O O O + @ # $                                                             ",
"                                                % & * * * * = - ; .                                                             ",
"                                                % : > , , , > < ; .                                                             ",
"                                                % : > , , , > < ; .                                                             ",
"                                                % : > , , , > < ; .                                                             ",
"                                      . % 1 1 1 2 3 4 = = = 4 5 6 7 1 1 1 % .                                                   ",
"                                    8 9 0 0 0 0 q w e e e e e r t y 0 0 0 0 u $                                                 ",
"                                    i p a s s s d f g h h h g j k l s s s z x %                                                 ",
"                                    c v * , , , 4 b n n n n n m M * , , , > : %                                                 ",
"                                    c v N , , , 4 b n n n n n m M * , , , > : %                                                 ",
"                                    c v N , , , 4 b n n n n n m M * , , , > : %                                                 ",
"                                    c v * , , , 4 b n n n n n m M * , , , > : %                                                 ",
"                                    i p a s s s d f g h h h g j k l s s s z x %                                                 ",
"                                    8 9 0 0 0 0 q w e e e e e r t y 0 0 0 0 u $                                                 ",
"                                      . % 1 1 1 2 3 4 = = = 4 5 6 7 1 1 1 % .                                                   ",
"                                                % : > , , , > < ; .                                                             ",
"                                                % : > , , , > < ; .                                                             ",
"                                                % : > , , , > < ; .                                                             ",
"                                                % B V C C C V Z A .                     $ % % % % % % $                         ",
"                                                S D F F F F F G H                     . u x : : : : x u .                       ",
"                                                J K L P P P L I U Y                   % 0 z > > > > z 0 %                       ",
"                                                J T R E E E R W Q Y                   1 0 s , , , , s 0 1                       ",
"                                                J T R E E E R W Q Y                   1 0 s , , , , s 0 1                       ",
"                                                J T R E E E R W Q Y                   1 0 s , , , , s 0 1                       ",
"                          . . . . . .           J T R R R R R W Q Y         $ . . . . 7 y l * * * * l y 7 . . . . $             ",
"                        i ! ; ; ; ; ! i         Y ~ W W W W W ^ / Y         # ; ; ; ; 6 t k M M M M k t 6 ; ; ; ; #             ",
"                      1 ( ) < < < < ) ( 1         _ Q Q Q Q Q / `         . @ - < < < 5 r j m m m m j r 5 < < < - @ .           ",
"                      % 0 z > > > > z 0 %           Y Y Y Y Y Y           . + = > > > 4 e g n n n n g e 4 > > > = + .           ",
"                      1 0 s , , , , s 0 1                                 . O * , , , = e h n n n n h e = , , , * O .           ",
"                      1 0 s , , , , s 0 1                                 . O * , , , = e h n n n n h e = , , , * O .           ",
"                      % 0 s , , , , s 0 %                                 . O * , , , = e h n n n n h e = , , , * O .           ",
"              . . . . 7 y z N N N N z y 7 . . . .                         . o * > > > 4 e g n n n n g e 4 > > > * o .           ",
"            ' ] O O O [ { } |  . .| } { [ O O O ] '                         X & : : : 3 w f b b b b f w 3 : : : & X             ",
"          . ] 4 * * * ..e X.n n n n X.e ..* * * 4 ] .                       . % % % % 2 q d 4 4 4 4 d q 2 % % % % .             ",
"          . O * , , , = e h n n n n h e = , , , * O .                                 1 0 s , , , , s 0 1                       ",
"          . O * , , , = e h n n n n h e = , , , * O .                                 1 0 s , , , , s 0 1                       ",
"          . O * , , , = e h n n n n h e = , , , * O .                                 1 0 s , , , , s 0 1                       ",
"          . ] = N N N ..e X.n n n n X.e ..N N N = ] .                                 % o.O.C C C C O.o.%                       ",
"          $ +.@.v v v #.$.%.&.&.&.&.%.$.#.v v v @.+.$                                 *.=.-.;.;.;.;.-.=.*.                      ",
"            :.>.c c c :.,.<.1.1.1.1.<.,.:.c c c >.:.                                  Y 2.3.4.4.4.4.3.2.Y                       ",
"                      % 0 z > , , > z 0 %                                             Y 5.6.P E E P 6.5.Y                       ",
"                      1 0 s , , , , s 0 1                                             Y 5.6.E E E E 6.5.Y                       ",
"                      1 0 s , , , , s 0 1                                             Y 5.6.E E E E 6.5.Y                       ",
"                      % 0 7.> , , > 7.0 %                                             Y 5.6.E E E E 6.5.Y                       ",
"                      1 8.9.0.0.0.0.9.8.1                                             Y q.w.6.6.6.6.w.q.Y                       ",
"                      Y e.r.t.y.y.t.r.e.Y                                               u.q.5.5.5.5.q.u.                        ",
"                      Y i.p.a.a.a.a.p.i.Y                                                 Y Y Y Y Y Y                           ",
"                      Y 5.6.E E E E 6.5.Y                                                                                       ",
"                      Y 5.6.E E E E 6.5.Y                                                                                       ",
"                      Y 5.6.E E E E 6.5.Y                                                                                       ",
"                      Y i.s.d.d.d.d.s.i.Y                                                                                       ",
"                      Y f.g.h.h.h.h.g.f.Y                                                                                       ",
"                          Y Y Y Y Y Y                                                                                           ",
"                                                                                                                                ",
"                                                                                                                                ",
"                                                                                                                                ",
"                                                                                                                                ",
"                                                                                                                                "
};
