/* XPM */
static char *player2[] = {
/* columns rows colors chars-per-pixel */
"64 64 50 1 ",
"  c #1D1415",
". c #1E1515",
"X c #201615",
"o c #211715",
"O c #231815",
"+ c #241915",
"@ c #442913",
"# c #462B14",
"$ c #472B14",
"% c #553B19",
"& c #563B19",
"* c #6F4716",
"= c #604219",
"- c #814B10",
"; c #834D10",
": c #835A1C",
"> c #A56917",
", c #A16C1C",
"< c #A06E1E",
"1 c #A96F1B",
"2 c #B8781A",
"3 c #C26E0E",
"4 c #C36E0E",
"5 c #C5700F",
"6 c #CB720D",
"7 c #CC720E",
"8 c #CB740E",
"9 c #CD750F",
"0 c #CE750F",
"q c #CD7510",
"w c #C5831D",
"e c #C7851D",
"r c #D78617",
"t c #DA8B1A",
"y c #DB911E",
"u c #DE931E",
"i c #DF941F",
"p c #E2961F",
"a c #D69120",
"s c #DE9923",
"d c #E09520",
"f c #E09A23",
"g c #E29C23",
"h c #E49D23",
"j c #E49E23",
"k c #E69E23",
"l c #E59D24",
"z c #E8A024",
"x c #E9A124",
"c c #83CE66",
/* pixels */
"cccccccccccccccccccccccccccccccccccccccccccccccccccccccccccccccc",
"cccccccccccccccccccccccccccccccccccccccccccccccccccccccccccccccc",
"cccccccccccccccccccccccccccccccccccccccccccccccccccccccccccccccc",
"cccccccccccccccccccccccccccccccccccccccccccccccccccccccccccccccc",
"cccccccccccccccccccccccccccccccccccccccccccccccccccccccccccccccc",
"cccccccccccccccccccccccccccccccccccccccccccccccccccccccccccccccc",
"cccccccccccccccccccccccccccccccccccccccccccccccccccccccccccccccc",
"ccccccccccccccccccccccccccccccccccccc7770dhkhjhhlhkhkhd0777ccccc",
"ccccccccccccccccccccccccccccccccccccc7999ijjhhhhhhhhjji9777ccccc",
"ccccccccccccccccccccccccccccccccccccc6679ujjhhhhhhhhjji9777ccccc",
"ccccccccccccccccccccccccccccccccccccc9977pjjhhljhhhhjju9777ccccc",
"ccccccccccccccccccccccccccccccccccccc7669ujjhhhjhhjjjju970qccccc",
"ccccccccccccccccccccccccccccccccccccc7799ujjjjfjhhhhjjp9977ccccc",
"ccccccccccccccccccccccccccccccccccccc7699ysssfjjhhgsssy9779ccccc",
"ccccccccccccccccccccccccccccccccccccc7774*&&&:jjjg:&&&*5797ccccc",
"cccccccccccccccccccccccccccccccccccccq974@.X.&jjjg& o.@4779ccccc",
"ccccccccccccccccccccccccccccccccccccc7765$XXX=fjhs=o+X$46q7ccccc",
"ccccccccccccccccccccccccccccccccccccc6994$X+X=fjhg=X+X$4779ccccc",
"ccccccccccccccccccccccccccccccccccccc9774$X+X=djjj=X+X@4q97ccccc",
"ccccccccccccccccccccccccccccccccccccc6974$X+X=gljd=X+X$4777ccccc",
"ccccccccccccccccccccccccccccccccccccc9774$.+O=hljg=X+O$4767ccccc",
"cccccjjjlcccccccccccccccccccccccccccc77971<<,,>>>>,,<,17997ccccc",
"ccccchjjjcccccccccccccccccccccccccccc7797dxkke----exkxd0779ccccc",
"ccccchjjjcccccccccccccccccccccccccccc977qfjjkw;---wjjjd0697ccccc",
"ccccchhhhcccccccccccccccccccccccccccc9677pjhjw;;;;wjjji9796ccccc",
"ccccchhhhcccccccccccccccccccccccccccc7697sjjjw;-;;wjjji9769ccccc",
"ccccchhhhcccccccccccccccccccccccccccc679qujhjw;;-;wjjji9996ccccc",
"ccccchhhhcccccccccccccccccccccccccccc9767pjljw;--;wjjju9677ccccc",
"ccccchhhhhlllllllllllllllllllllljjjjr7797djjja2222ajjji9766ccccc",
"ccccchhhhhhhjjhhjghhjjhhjjhhjjhhjjjjt7777pjjhlkkjkkjjjp6997ccccc",
"ccccchhhhhhhjhhhjhhhjhhhjhhhjhhhjjjjt796qpjhhhhhhhhhjji9679ccccc",
"ccccchhhhhhhhhhhjhhhjhhhjhhhjhhhhhjjt6977pjhhhhhhhhhjji9697ccccc",
"ccccchhhhhhhhhhhhhhhhhhhhhhhhhhhhhhjt777qujjjjhhhhhhhjuq777ccccc",
"ccccchhhhhhhhhhhhhhhhhhhhhhhhhhhhhhjt7776pjjjjhhhhhhjjd7776ccccc",
"ccccchjjhhhhhhhhhhhhhhhhhhhhhhhhhhhjt7777pjhfjlhhhhhjjpqq67ccccc",
"cccccllllhhhhhhhhhhhhhhhhhhhhhhhhhhhprrrrphhjjhhhhhhjjdq799ccccc",
"ccccccccchhhhhhhhhhhhhhhhhhhhhhhhhhhjhhhhhhhhhhhhhhhhhhccccccccc",
"ccccccccchhhhhhhhhhhhhhhhhhhhhhhhhhhjhhhhhhhhhhhhhhhhhhccccccccc",
"ccccccccchhhhhhhhhhhhhhhhhhhhhhhhhhhhhhhhhhhhhhhhhhhhhhccccccccc",
"ccccccccchhhhhhhhhhhhhhhhhhhhhhhhhhhhhhhhhhhhhhhhhhhhhhccccccccc",
"ccccccccchhhhhhhhhhhhhhhhhhhhhhhhhhhhhhhhhhhhhhhhhhhhhhccccccccc",
"ccccccccchhhhhhhhhhhhhhhhhhhhhhhhhhhhhhhhhhhhhhhhhhhhhhccccccccc",
"ccccccccchhhhhhhhhhhhhhhhhhhhhhhhhhhhhhhhhhhhhhhhhhhhhhccccccccc",
"ccccccccchhhhhhhhhhhhhhhhhhhhhhhhhhhhhhhhhhhhhhhhhhhhhhccccccccc",
"ccccccccchhhhhhhhhhhhhhhhhhhhhhhhhhhhhhhhhhhhhhhhhhhhhhccccccccc",
"ccccccccchhhhhhhhhhhhhhhhhhhhhhhhhhhhhhhhhhhhhhhhhhhjjhccccccccc",
"ccccccccchhhhhhhhhhhhhhhhhhhhhhhhhhhhhhhhhhhhhhhhhhhjjjccccccccc",
"ccccccccchhhhhhhhhhhhhhhhhhhhhhhhhhhhhhhhhhhhhhhhhhhjjjccccccccc",
"ccccccccchhhhhhhhhhhhhhhhhhhhhhhhhhhhhhhhhhhhhhhhhhhhhhccccccccc",
"ccccccccchhhhjhjkjjkkjkjjkkjkjjkkjjjjjjjlhhhhjhjjhjhhhhccccccccc",
"ccccccccchhhhlccccccccccccccccccccccccccchhhhlcccchhhhhccccccccc",
"ccccccccchhhhjccccccccccccccccccccccccccchhhhjccccjhhhhccccccccc",
"ccccccccchhhhlccccccccccccccccccccccccccchhhhlcccclhhhhccccccccc",
"ccccccccchhhhlccccccccccccccccccccccccccchhhhlcccclhhhhccccccccc",
"ccccccccchhhhlccccccccccccccccccccccccccchhhhlcccchhhhhccccccccc",
"ccccccccchhhhlccccccccccccccccccccccccccchhhhlcccclhhhhccccccccc",
"ccccccccchhhhjccccccccccccccccccccccccccchhhhjccccjhhhhccccccccc",
"cccccccccccccccccccccccccccccccccccccccccccccccccccccccccccccccc",
"cccccccccccccccccccccccccccccccccccccccccccccccccccccccccccccccc",
"cccccccccccccccccccccccccccccccccccccccccccccccccccccccccccccccc",
"cccccccccccccccccccccccccccccccccccccccccccccccccccccccccccccccc",
"cccccccccccccccccccccccccccccccccccccccccccccccccccccccccccccccc",
"cccccccccccccccccccccccccccccccccccccccccccccccccccccccccccccccc",
"cccccccccccccccccccccccccccccccccccccccccccccccccccccccccccccccc"
};
