/* XPM */
static char *wall[] = {
/* columns rows colors chars-per-pixel */
"64 64 31 1 ",
"  c #915D35",
". c #915E34",
"X c #915F34",
"o c #8F6F31",
"O c #916333",
"+ c #916433",
"@ c #916034",
"# c #926034",
"$ c #906A32",
"% c #906C32",
"& c #8F7630",
"* c #8E7730",
"= c #8E7830",
"- c #6C9A20",
"; c #8C882D",
": c #8D882D",
"> c #8C8A2D",
", c #8C8C2C",
"< c #8B982A",
"1 c #8B992A",
"2 c #89A927",
"3 c #88AC27",
"4 c #87B525",
"5 c #87B725",
"6 c #86BF23",
"7 c #86BE24",
"8 c #86C123",
"9 c #86C223",
"0 c #87C223",
"q c #86C323",
"w c #E89CB0",
/* pixels */
"wwwwwwwwwwwwwwwwwwwwwwwwwwwwwwwwwwwwwwwwwwwwwwwwwwwwwwwwwwwwwwww",
"wwwwwwwwwwwwwwwwwwwwwwwwwwwwwwwwwwwwwwwwwwwwwwwwwwwwwwwwwwwwwwww",
"wwwwwwwwwwwwwwwwwwwwwwwwwwwwwwwwwwwwwwwwwwwwwwwwwwwwwwwwwwwwwwww",
"wwwwwwwwwwwwwwwwwwwwwwwwwwwwwwwwwwwwwwwwwwwwwwwwwwwwwwwwwwwwwwww",
"wwwwwwwwwwwwwwwwwwwwwwwwwwwwwwwwwwwwwwwwwwwwwwwwwwwwwwwwwwwwwwww",
"wwwwwwwwwwwwwwwwwwwwwwwwwwwwwwwwwwwwwwwwwwwwwwwwwwwwwwwwwwwwwwww",
"wwwwwwwwwwwwwwwwwwwwwwwwwwww--888888-wwwwwwwwwwwwwwwwwwwwwwwwwww",
"wwwwwwwwwwwwwwwwwwwwwwwwwwww-88888888888wwwwwwwwwwwwwwwwwwwwwwww",
"wwwwwwwwwwwwwwwwwwwwww------888888888888wwwwwwwwwwwwwwwwwwwwwwww",
"wwwwwwwwwwwwwwwwwwwwww------8888888888888-wwwwwwwwwwwwwwwwwwwwww",
"wwwwwwwwwwwwwwwwwwwwww---88888888888888888wwwwwwwwwwwwwwwwwwwwww",
"wwwwwwwwwwwwwwwwwwwwww---888888888888888888888wwwwwwwwwwwwwwwwww",
"wwwwwwwwwwwwwwwwwwwwww---888888888888888888888wwwwwwwwwwwwwwwwww",
"wwwwwwwwwwww-------------888888888888888888888wwwwwwwwwwwwwwwwww",
"wwwwwwwwwwww-------------88888888888888888888888888wwwwwwwwwwwww",
"wwwwwwwwwwww-------------88888888888888888888888888wwwwwwwwwwwww",
"wwwwwwwwwwww----88888888888888888888888888888888888wwwwwwwwwwwww",
"wwwwwwwwwwww----88888888888888888888888888888888888wwwwwwwwwwwww",
"wwwwwwwwwwww----88888888888888888888888888888888888wwwwwwwwwwwww",
"wwwwwwwww-------888888888888888888888888888888888888q888wwwwwwww",
"wwwwwwwww-------8888888888888888888888888888888888888888wwwwwwww",
"wwwwwwwww-------8888888888888888888888888888888888888888qqwwwwww",
"wwwwwwwww---8888888888888888888888888888888888888888888878wwwwww",
"wwwwww------8888888888888888888888888888888888888888888888wwwwww",
"wwwwww------8888888888qqqq88888888888888888888888888888888wwwwww",
"wwwwww------8888888-<<<<<-88888888888888888888888888888888wwwwww",
"wwwwww--88888888888-XXXX@>q8888888888888888888888888888888wwwwww",
"wwwwww--88888888887-X@@@@>88888888888888888888888888888888888www",
"www-----88888888887-X@@@X>88888888888888888888888888888888888www",
"www-----88888888887-X@@@X:88888888888888888888888888888888888www",
"www-----88888888887-X@XXX:688888888888888888888qq888888888888www",
"www-----88888888887-$$%%%:444444-8888888888875444447888888wwwwww",
"wwwwww--88888888888-------$$%%$&-8888888888q3&oo+oo2997888wwwwww",
"wwwwww--888888888888q8q8q1@XXX@$-q88888888882XXX@X@2998888wwwwww",
"wwwwww--888888888888888891X@@XX%-888888888q82OX@@@+2997988wwwwww",
"wwwwww-----888888888888891X@X+@%-88888888q882@@@@@+2999988wwwwww",
"wwwwww-----8888888888888q1@@@X@%-888888899783@@@@@+2999788wwwwww",
"wwwwwwwww--8888888888888q1@XX@X$-8878qq899883+@XXX@2999988wwwwww",
"wwwwwwwww--88888888888999-------;;;;;>>>:;::,<<<<<<4wwwwwwwwwwww",
"wwwwwwwww------888887999999q8885-X  XXX@  XX=7999q-wwwwwwwwwwwww",
"wwwwwwwww------88888888888888885-XXX@@@@@@@@*79988-wwwwwwwwwwwww",
"wwwwwwwwwwwww--88888888888888885-XXX@@@@@@@@*99788-wwwwwwwwwwwww",
"wwwwwwwwwwwww--88888888888008885-@@@@@@@XX@X=79988-wwwwwwwwwwwww",
"wwwwwwwwwwwww--------------------@@@@@-------------wwwwwwwwwwwww",
"wwwwwwwwwwwww--------------------X@@@@-------------wwwwwwwwwwwww",
"wwwwwwwwwwwwwwwwwwwwwwwwwwOO+++@XX@@@@wwwwwwwwwwwwwwwwwwwwwwwwww",
"wwwwwwwwwwwwwwwwwwwwwwwwww@@@@@@@@@@@@wwwwwwwwwwwwwwwwwwwwwwwwww",
"wwwwwwwwwwwwwwwwwwwwwwwwww@@@@@@@@@@@@wwwwwwwwwwwwwwwwwwwwwwwwww",
"wwwwwwwwwwwwwwwwwwwwwwwwww@@@@@@@@@@@@wwwwwwwwwwwwwwwwwwwwwwwwww",
"wwwwwwwwwwwwwwwwwwwwwwwwww@@@@@@@@@@@@wwwwwwwwwwwwwwwwwwwwwwwwww",
"wwwwwwwwwwwwwwwwwwwwwwwwww@@@@@@@@@@@@wwwwwwwwwwwwwwwwwwwwwwwwww",
"wwwwwwwwwwwwwwwwwwwwwwwwww@@@@@@@@@@@@wwwwwwwwwwwwwwwwwwwwwwwwww",
"wwwwwwwwwwwwwwwwwwwwwwwwww@@@@@@@@@@@@wwwwwwwwwwwwwwwwwwwwwwwwww",
"wwwwwwwwwwwwwwwwwwwwwwwwww@@@@@@@@@@@@wwwwwwwwwwwwwwwwwwwwwwwwww",
"wwwwwwwwwwwwwwwwwwwwwwwwww@@@@@@@@@@@@wwwwwwwwwwwwwwwwwwwwwwwwww",
"wwwwwwwwwwwwwwwwwwwwwwwwww@@@@@@@@@@@Xwwwwwwwwwwwwwwwwwwwwwwwwww",
"wwwwwwwwwwwwwwwwwwwwwwwwww@@@@@@@@@@@@wwwwwwwwwwwwwwwwwwwwwwwwww",
"wwwwwwwwwwwwwwwwwwwwwwwwww@####@@@@@@@wwwwwwwwwwwwwwwwwwwwwwwwww",
"wwwwwwwwwwwwwwwwwwwwwwwwwwwwwwwwwwwwwwwwwwwwwwwwwwwwwwwwwwwwwwww",
"wwwwwwwwwwwwwwwwwwwwwwwwwwwwwwwwwwwwwwwwwwwwwwwwwwwwwwwwwwwwwwww",
"wwwwwwwwwwwwwwwwwwwwwwwwwwwwwwwwwwwwwwwwwwwwwwwwwwwwwwwwwwwwwwww",
"wwwwwwwwwwwwwwwwwwwwwwwwwwwwwwwwwwwwwwwwwwwwwwwwwwwwwwwwwwwwwwww",
"wwwwwwwwwwwwwwwwwwwwwwwwwwwwwwwwwwwwwwwwwwwwwwwwwwwwwwwwwwwwwwww",
"wwwwwwwwwwwwwwwwwwwwwwwwwwwwwwwwwwwwwwwwwwwwwwwwwwwwwwwwwwwwwwww"
};
